<svg width="213" height="47" viewBox="0 0 213 47" fill="none" xmlns="http://www.w3.org/2000/svg">
<path d="M64.2031 36.8906V40H52.125V36.8906H64.2031ZM53.2344 17.25V40H49.3125V17.25H53.2344ZM62.625 26.75V29.8125H52.125V26.75H62.625ZM64.125 17.25V20.375H52.125V17.25H64.125Z" fill="#2B519B"/>
<path d="M82.9362 36.8906V40H71.5144V36.8906H82.9362ZM72.6081 17.25V40H68.6863V17.25H72.6081Z" fill="#2B519B"/>
<path d="M102.138 36.8906V40H90.06V36.8906H102.138ZM91.1694 17.25V40H87.2475V17.25H91.1694ZM100.56 26.75V29.8125H90.06V26.75H100.56ZM102.06 17.25V20.375H90.06V17.25H102.06Z" fill="#2B519B"/>
<path d="M118.59 34.1406C118.59 33.6719 118.517 33.2552 118.371 32.8906C118.236 32.526 117.991 32.1927 117.637 31.8906C117.283 31.5885 116.783 31.2969 116.137 31.0156C115.501 30.724 114.689 30.4271 113.699 30.125C112.616 29.7917 111.616 29.4219 110.699 29.0156C109.793 28.599 109.001 28.1198 108.324 27.5781C107.647 27.026 107.121 26.3958 106.746 25.6875C106.371 24.9688 106.184 24.1406 106.184 23.2031C106.184 22.276 106.376 21.4323 106.762 20.6719C107.158 19.9115 107.715 19.2552 108.434 18.7031C109.163 18.1406 110.022 17.7083 111.012 17.4062C112.001 17.0938 113.095 16.9375 114.293 16.9375C115.981 16.9375 117.434 17.25 118.652 17.875C119.882 18.5 120.824 19.3385 121.481 20.3906C122.147 21.4427 122.481 22.6042 122.481 23.875H118.59C118.59 23.125 118.429 22.4635 118.106 21.8906C117.793 21.3073 117.314 20.849 116.668 20.5156C116.033 20.1823 115.225 20.0156 114.246 20.0156C113.319 20.0156 112.548 20.1562 111.934 20.4375C111.319 20.7188 110.861 21.099 110.559 21.5781C110.257 22.0573 110.106 22.599 110.106 23.2031C110.106 23.6302 110.205 24.0208 110.403 24.375C110.6 24.7188 110.903 25.0417 111.309 25.3438C111.715 25.6354 112.225 25.9115 112.84 26.1719C113.455 26.4323 114.179 26.6823 115.012 26.9219C116.272 27.2969 117.371 27.7135 118.309 28.1719C119.246 28.6198 120.027 29.1302 120.652 29.7031C121.277 30.276 121.746 30.9271 122.059 31.6562C122.371 32.375 122.527 33.1927 122.527 34.1094C122.527 35.0677 122.335 35.9323 121.949 36.7031C121.564 37.4635 121.012 38.1146 120.293 38.6562C119.585 39.1875 118.731 39.599 117.731 39.8906C116.741 40.1719 115.637 40.3125 114.418 40.3125C113.324 40.3125 112.246 40.1667 111.184 39.875C110.132 39.5833 109.173 39.1406 108.309 38.5469C107.444 37.9427 106.757 37.1927 106.246 36.2969C105.736 35.3906 105.481 34.3333 105.481 33.125H109.403C109.403 33.8646 109.528 34.4948 109.778 35.0156C110.038 35.5365 110.397 35.9635 110.856 36.2969C111.314 36.6198 111.845 36.8594 112.449 37.0156C113.064 37.1719 113.72 37.25 114.418 37.25C115.335 37.25 116.1 37.1198 116.715 36.8594C117.34 36.599 117.809 36.2344 118.121 35.7656C118.434 35.2969 118.59 34.7552 118.59 34.1406Z" fill="#2B519B"/>
<path d="M131.464 17.25V40H127.542V17.25H131.464Z" fill="#2B519B"/>
<path d="M155.666 17.25V40H151.744L141.541 23.7031V40H137.619V17.25H141.541L151.775 33.5781V17.25H155.666Z" fill="#2B519B"/>
<path d="M168.227 40H163.368L163.399 36.8906H168.227C169.633 36.8906 170.81 36.5833 171.758 35.9688C172.716 35.3542 173.435 34.474 173.914 33.3281C174.404 32.1823 174.649 30.8177 174.649 29.2344V28C174.649 26.7708 174.508 25.6823 174.227 24.7344C173.956 23.7865 173.55 22.9896 173.008 22.3438C172.477 21.6979 171.821 21.2083 171.039 20.875C170.269 20.5417 169.378 20.375 168.368 20.375H163.274V17.25H168.368C169.878 17.25 171.258 17.5052 172.508 18.0156C173.758 18.5156 174.836 19.2396 175.743 20.1875C176.659 21.1354 177.362 22.2708 177.852 23.5938C178.341 24.9167 178.586 26.3958 178.586 28.0312V29.2344C178.586 30.8698 178.341 32.349 177.852 33.6719C177.362 34.9948 176.659 36.1302 175.743 37.0781C174.826 38.0156 173.732 38.7396 172.461 39.25C171.201 39.75 169.789 40 168.227 40ZM165.539 17.25V40H161.618V17.25H165.539Z" fill="#2B519B"/>
<path d="M201.944 28V29.25C201.944 30.9688 201.72 32.5104 201.273 33.875C200.825 35.2396 200.184 36.401 199.351 37.3594C198.528 38.3177 197.538 39.0521 196.382 39.5625C195.226 40.0625 193.944 40.3125 192.538 40.3125C191.142 40.3125 189.866 40.0625 188.71 39.5625C187.564 39.0521 186.569 38.3177 185.726 37.3594C184.882 36.401 184.226 35.2396 183.757 33.875C183.299 32.5104 183.069 30.9688 183.069 29.25V28C183.069 26.2812 183.299 24.7448 183.757 23.3906C184.215 22.026 184.861 20.8646 185.694 19.9062C186.538 18.9375 187.533 18.2031 188.679 17.7031C189.835 17.1927 191.111 16.9375 192.507 16.9375C193.913 16.9375 195.194 17.1927 196.351 17.7031C197.507 18.2031 198.502 18.9375 199.335 19.9062C200.168 20.8646 200.809 22.026 201.257 23.3906C201.715 24.7448 201.944 26.2812 201.944 28ZM198.023 29.25V27.9688C198.023 26.6979 197.898 25.5781 197.648 24.6094C197.408 23.6302 197.049 22.8125 196.569 22.1562C196.101 21.4896 195.523 20.9896 194.835 20.6562C194.148 20.3125 193.371 20.1406 192.507 20.1406C191.642 20.1406 190.871 20.3125 190.194 20.6562C189.517 20.9896 188.939 21.4896 188.46 22.1562C187.991 22.8125 187.632 23.6302 187.382 24.6094C187.132 25.5781 187.007 26.6979 187.007 27.9688V29.25C187.007 30.5208 187.132 31.6458 187.382 32.625C187.632 33.6042 187.996 34.4323 188.476 35.1094C188.965 35.776 189.549 36.2812 190.226 36.625C190.903 36.9583 191.674 37.125 192.538 37.125C193.413 37.125 194.189 36.9583 194.866 36.625C195.543 36.2812 196.116 35.776 196.585 35.1094C197.054 34.4323 197.408 33.6042 197.648 32.625C197.898 31.6458 198.023 30.5208 198.023 29.25Z" fill="#2B519B"/>
<path d="M40.4212 27.3973L14.2859 4.09937L5.7666 5.39226L35.6563 32.9356L40.4212 27.3973Z" fill="#DEE2F5"/>
<path d="M31.1666 38.2892L35.6562 32.9357L16.5961 16.7411L11.565 21.89L31.1666 38.2892Z" fill="#8FACE3"/>
<path d="M22.5583 40.3003L15.0078 32.9356L19.1953 28.5206L32.9128 40.3003H22.5583Z" fill="#4570C3"/>
<path d="M36.2406 33.8269L42.0001 27.277L14.4637 3L4.66805 4.08192C4.04353 4.15096 3.77582 4.90869 4.22048 5.35107L15.5212 16.5939L10.6422 21.4478L17.9208 28.2132L13.4084 32.7021L21.7492 41.0001H34.1043C34.5033 41.0001 34.7032 40.5202 34.421 40.2395L32.6446 38.4722L36.2406 33.8269ZM13.9129 4.72699L39.6582 27.425L35.525 32.1256L16.079 14.8068L6.74326 5.51896L13.9129 4.72699ZM13.0833 21.3619L16.7962 17.6679L34.4289 33.3721L31.108 37.7864L19.972 27.9117L13.0833 21.3619ZM22.4393 39.3442L15.763 32.7022L19.1215 29.3609L30.098 39.0793L22.4393 39.3442Z" fill="#2B519B"/>
</svg>
