<?xml version="1.0" standalone="no"?>
<!DOCTYPE svg PUBLIC "-//W3C//DTD SVG 20010904//EN"
 "http://www.w3.org/TR/2001/REC-SVG-20010904/DTD/svg10.dtd">
<svg version="1.0" xmlns="http://www.w3.org/2000/svg"
 width="32.000000pt" height="32.000000pt" viewBox="0 0 32.000000 32.000000"
 preserveAspectRatio="xMidYMid meet">

<g transform="translate(0.000000,32.000000) scale(0.100000,-0.100000)"
fill="#000000" stroke="none">
<path d="M92 258 c-17 -17 -15 -73 4 -89 9 -8 42 -23 73 -34 45 -16 57 -25 59
-44 3 -15 -3 -30 -14 -38 -10 -7 -13 -13 -7 -13 18 0 46 39 46 65 0 37 -25 59
-88 79 -60 19 -75 37 -56 67 13 21 2 26 -17 7z"/>
<path d="M188 262 c8 -2 22 -18 33 -36 l19 -31 0 36 c0 34 -2 36 -32 36 -18 0
-27 -2 -20 -5z"/>
<path d="M70 85 c0 -40 0 -40 40 -40 36 -1 38 0 20 10 -12 6 -30 25 -41 41
l-19 29 0 -40z"/>
</g>
</svg>
