<?xml version="1.0" encoding="UTF-8"?>
<svg width="28px" height="19px" viewBox="0 0 28 19" version="1.1" xmlns="http://www.w3.org/2000/svg" xmlns:xlink="http://www.w3.org/1999/xlink">
    <!-- Generator: Sketch 64 (93537) - https://sketch.com -->
    <title>Group 11</title>
    <desc>Created with Sketch.</desc>
    <g id="Page-1" stroke="none" stroke-width="1" fill="none" fill-rule="evenodd">
        <g id="start" transform="translate(-118.000000, -25.000000)" fill="#EB395F" fill-rule="nonzero">
            <g id="Group-3">
                <g id="Group-21" transform="translate(16.000000, 22.000000)">
                    <g id="Group-10" transform="translate(0.000000, 2.000000)">
                        <g id="Group" transform="translate(90.000000, 0.000000)">
                            <g id="Group-4" transform="translate(12.500000, 0.000000)">
                                <g id="Group-11" transform="translate(0.000000, 1.000000)">
                                    <path d="M26.1369722,0.255055908 C25.9496163,0.109317444 25.7065578,0.0557253567 25.4752117,0.109135828 L11.5558647,3.32267029 L11.3779758,2.8122939 L11.3720558,2.79594254 C10.6194109,0.780508645 8.47025494,-0.374257444 6.37300068,0.109931853 C5.94857787,0.207917581 5.68392753,0.631226506 5.78186747,1.05545101 C5.87980741,1.47967551 6.30323998,1.74412798 6.7276628,1.64614225 C8.0534942,1.34004995 9.41209474,2.06799767 9.89146878,3.33994342 L12.7413678,11.5168075 C12.026214,12.0636213 11.6550859,12.9970611 11.8703481,13.929464 C11.8718288,13.9358777 11.8733863,13.9422736 11.8750119,13.9486134 C11.87633,13.9550242 11.8777339,13.9614556 11.8792146,13.9678693 C12.1725557,15.2384689 13.445407,16.0334212 14.7166006,15.739943 L15.0292887,15.6677533 C15.004016,15.9148452 15.0182629,16.1700865 15.0771812,16.4252895 C15.3656279,17.6746894 16.617255,18.456419 17.8672774,18.1678286 C19.1172998,17.8792382 19.8995671,16.627947 19.6111204,15.3785471 C19.5522021,15.1233442 19.4531167,14.8876894 19.3220838,14.6766834 L22.6371234,13.9113462 C22.6118507,14.1584382 22.6260976,14.4136795 22.6850159,14.6688824 C22.9734626,15.9182823 24.2250897,16.700012 25.4751121,16.4114216 C26.7251345,16.1228312 27.5074017,14.87154 27.218955,13.6221401 C26.9305083,12.3727402 25.6788812,11.5910105 24.4288588,11.8796009 L14.3619385,14.2037326 C13.9382073,14.3015587 13.5139235,14.0365746 13.4161432,13.6130414 C13.4146624,13.6066277 13.4131049,13.6002317 13.4114793,13.593892 C13.4101612,13.5874812 13.4087573,13.5810498 13.4072766,13.5746361 C13.3094963,13.1511029 13.5746786,12.726943 13.9984098,12.629117 L23.8090473,10.3641528 C25.1731867,10.0492164 26.2302907,8.91659029 26.5022145,7.47859652 C26.5830989,7.0507887 26.3017445,6.63848865 25.8737646,6.55768753 C25.4457936,6.47692482 25.0332627,6.75824551 24.9523399,7.18606221 C24.7990809,7.99667205 24.1971059,8.65647183 23.4543852,8.82794242 L14.2178289,10.9603695 L12.0778215,4.82025767 L24.8845859,1.86358313 L24.9245595,3.75221295 C24.9337892,4.18749245 25.2942633,4.53282174 25.7297276,4.52350675 C25.7851899,4.52235251 25.8391686,4.51547297 25.8911936,4.50346205 C26.2474536,4.42121294 26.5095672,4.09840677 26.5015193,3.7185572 L26.4410034,0.860417586 C26.4360045,0.623146026 26.3243281,0.400794372 26.1369722,0.255055908 Z M24.7834825,13.4158202 C25.1860425,13.3228819 25.5890932,13.574605 25.6819881,13.9769769 C25.774883,14.3793488 25.5229715,14.7822818 25.1204115,14.8752201 C24.7178515,14.9681584 24.3148008,14.7164353 24.221906,14.3140634 C24.1290111,13.9116915 24.3809225,13.5087585 24.7834825,13.4158202 Z M17.1756863,15.1722183 C17.5782463,15.07928 17.9813058,15.3310415 18.0741918,15.733375 C18.1670867,16.1357469 17.9151753,16.5386799 17.5126153,16.6316182 C17.1100553,16.7245565 16.7070046,16.4728334 16.6141097,16.0704615 C16.5212148,15.6680896 16.7731263,15.2651566 17.1756863,15.1722183 Z" id="XMLID_389_"></path>
                                    <g id="Group-6" transform="translate(5.000000, 9.114026) scale(1, -1) translate(-5.000000, -9.114026) translate(0.000000, 6.114026)">
                                        <rect id="Rectangle" x="5.19175484" y="4.01959289e-15" width="4.49952086" height="1" rx="0.461495459"></rect>
                                        <rect id="Rectangle-Copy" x="3.1150529" y="2.3271571" width="6.5762228" height="1" rx="0.461495459"></rect>
                                        <rect id="Rectangle-Copy-2" x="2.59040431e-14" y="4.65431419" width="9.6912757" height="1" rx="0.461495459"></rect>
                                    </g>
                                </g>
                            </g>
                        </g>
                    </g>
                </g>
            </g>
        </g>
    </g>
</svg>