<?xml version="1.0" encoding="UTF-8"?>
<svg width="35px" height="35px" viewBox="0 0 35 35" version="1.1" xmlns="http://www.w3.org/2000/svg" xmlns:xlink="http://www.w3.org/1999/xlink">
    <!-- Generator: Sketch 52.2 (67145) - http://www.bohemiancoding.com/sketch -->
    <title>Group 2</title>
    <desc>Created with Sketch.</desc>
    <g id="Symbols" stroke="none" stroke-width="1" fill="none" fill-rule="evenodd">
        <g id="Group-2">
            <g id="disc-percent" fill="#000000" fill-rule="nonzero">
                <circle id="Oval" cx="17.5" cy="17.5" r="17.5"></circle>
            </g>
            <g id="Group" transform="translate(3.000000, 5.000000)" fill="#FFFFFF">
                <path d="M22.2407227,8.54785156 C22.0860995,8.36881421 22.1023754,8.18571057 22.2895508,7.99853516 L25.7075195,4.67822266 C25.8295905,4.55615173 25.9720044,4.49511719 26.1347656,4.49511719 L26.5864258,4.49511719 C26.7084967,4.49511719 26.8183589,4.54394482 26.9160156,4.64160156 C27.0136724,4.7392583 27.0625,4.84912048 27.0625,4.97119141 L27.0625,21.4995117 C27.0625,21.6378588 27.0136724,21.7558589 26.9160156,21.8535156 C26.8183589,21.9511724 26.7084967,22 26.5864258,22 L25.6586914,22 C25.5203444,22 25.4023442,21.9511724 25.3046875,21.8535156 C25.2070308,21.7558589 25.1582031,21.6378588 25.1582031,21.4995117 L25.1582031,7.70556641 L25.1337891,7.70556641 L23.3149414,9.12158203 C23.0952137,9.28434326 22.9039722,9.27620532 22.7412109,9.09716797 L22.2407227,8.54785156 Z" id="Percentage"></path>
                <path d="M1.44287109,11.8095703 L1.44287109,5.18847656 C1.44287109,5.13639297 1.46077456,5.0916343 1.49658203,5.05419922 C1.5323895,5.01676414 1.57796196,4.99804688 1.63330078,4.99804688 L3.84033203,4.99804688 C4.44254858,4.99804688 4.93163875,5.17219878 5.30761719,5.52050781 C5.68359563,5.86881685 5.87158203,6.30826558 5.87158203,6.83886719 C5.87158203,7.50618823 5.54769204,8.03678188 4.89990234,8.43066406 L4.89990234,8.45019531 C5.04638745,8.51204458 5.18473242,8.58691362 5.31494141,8.67480469 C5.44515039,8.76269575 5.57128845,8.87093035 5.69335938,8.99951172 C5.8154303,9.12809309 5.91227178,9.28515532 5.98388672,9.47070312 C6.05550166,9.65625093 6.09130859,9.85644424 6.09130859,10.0712891 C6.09130859,10.6311877 5.89437046,11.0926089 5.50048828,11.4555664 C5.1066061,11.818524 4.60042627,12 3.98193359,12 L1.63330078,12 C1.57796196,12 1.5323895,11.9812827 1.49658203,11.9438477 C1.46077456,11.9064126 1.44287109,11.8616539 1.44287109,11.8095703 Z M2.17041016,11.3310547 L3.93310547,11.3310547 C4.33024287,11.3310547 4.6492501,11.211427 4.89013672,10.972168 C5.13102334,10.732909 5.25146484,10.4293638 5.25146484,10.0615234 C5.25146484,9.70995918 5.12044402,9.41699336 4.85839844,9.18261719 C4.59635286,8.94824102 4.27327666,8.83105469 3.88916016,8.83105469 L2.17041016,8.83105469 L2.17041016,11.3310547 Z M2.18994141,8.13769531 L3.71337891,8.13769531 C4.11377153,8.13769531 4.43196497,8.0188814 4.66796875,7.78125 C4.90397253,7.5436186 5.02197266,7.24577002 5.02197266,6.88769531 C5.02197266,6.52636538 4.90560012,6.23665474 4.67285156,6.01855469 C4.440103,5.80045464 4.12028198,5.69140625 3.71337891,5.69140625 L2.18994141,5.69140625 L2.18994141,8.13769531 Z M7.59521484,9.4609375 L7.59521484,5.18847656 C7.59521484,5.13964819 7.6147459,5.09570332 7.65380859,5.05664062 C7.69287129,5.01757793 7.73681616,4.99804688 7.78564453,4.99804688 L8.16650391,4.99804688 C8.22184272,4.99804688 8.26741519,5.01676414 8.30322266,5.05419922 C8.33903013,5.0916343 8.35693359,5.13639297 8.35693359,5.18847656 L8.35693359,9.40234375 C8.35693359,9.98502896 8.52620273,10.4619122 8.86474609,10.8330078 C9.20328945,11.2041034 9.66064165,11.3896484 10.2368164,11.3896484 C10.8162464,11.3896484 11.2776676,11.2065448 11.6210938,10.840332 C11.9645199,10.4741193 12.1362305,10.001305 12.1362305,9.421875 L12.1362305,5.18847656 C12.1362305,5.13639297 12.1541339,5.0916343 12.1899414,5.05419922 C12.2257489,5.01676414 12.2713213,4.99804688 12.3266602,4.99804688 L12.7075195,4.99804688 C12.7563479,4.99804688 12.8002928,5.01757793 12.8393555,5.05664062 C12.8784182,5.09570332 12.8979492,5.13964819 12.8979492,5.18847656 L12.8979492,9.4609375 C12.8979492,10.2259153 12.6505559,10.8566056 12.1557617,11.3530273 C11.6609676,11.8494491 11.0213255,12.0976562 10.2368164,12.0976562 C9.4555625,12.0976562 8.81998943,11.8494491 8.33007812,11.3530273 C7.84016682,10.8566056 7.59521484,10.2259153 7.59521484,9.4609375 Z M13.8500977,5.29101562 C13.811035,5.22591113 13.8085936,5.16080762 13.8427734,5.09570312 C13.8769533,5.03059863 13.9331051,4.99804688 14.0112305,4.99804688 L14.4799805,4.99804688 C14.5418297,4.99804688 14.5955401,5.02897104 14.6411133,5.09082031 L16.6625977,7.87890625 L18.684082,5.09082031 C18.7296552,5.02897104 18.781738,4.99804688 18.840332,4.99804688 L19.3139648,4.99804688 C19.3920902,4.99804688 19.4474282,5.03059863 19.4799805,5.09570312 C19.5125327,5.16080762 19.5092775,5.22591113 19.4702148,5.29101562 L17.0336914,8.62109375 L17.0336914,11.8095703 C17.0336914,11.8583987 17.0141604,11.9023436 16.9750977,11.9414062 C16.936035,11.9804689 16.8920901,12 16.8432617,12 L16.4526367,12 C16.3972979,12 16.3517254,11.9812827 16.315918,11.9438477 C16.2801105,11.9064126 16.262207,11.8616539 16.262207,11.8095703 L16.262207,8.63085938 L13.8500977,5.29101562 Z M1.88476562,20.3203125 C1.56249839,19.7701795 1.40136719,19.1663444 1.40136719,18.5087891 C1.40136719,17.8512337 1.56249839,17.245771 1.88476562,16.6923828 C2.20703286,16.1389946 2.644854,15.7019873 3.19824219,15.3813477 C3.75163037,15.060708 4.35709307,14.9003906 5.01464844,14.9003906 C5.4996769,14.9003906 5.93424287,14.9785148 6.31835938,15.1347656 C6.70247588,15.2910164 7.07356592,15.5221339 7.43164062,15.828125 C7.47070332,15.8671877 7.49186196,15.9143877 7.49511719,15.9697266 C7.49837241,16.0250654 7.48046895,16.0722654 7.44140625,16.1113281 L7.16308594,16.3896484 C7.11751279,16.4384768 7.07763689,16.461263 7.04345703,16.4580078 C7.00927717,16.4547526 6.96289092,16.4287112 6.90429688,16.3798828 C6.64062368,16.1487619 6.33951992,15.9607755 6.00097656,15.815918 C5.6624332,15.6710605 5.33040527,15.5986328 5.00488281,15.5986328 C4.61751108,15.5986328 4.25049001,15.6759432 3.90380859,15.8305664 C3.55712717,15.9851896 3.26171997,16.192707 3.01757812,16.453125 C2.77343628,16.713543 2.57975332,17.0195295 2.43652344,17.3710938 C2.29329355,17.722658 2.22167969,18.0888653 2.22167969,18.4697266 C2.22167969,18.9775416 2.34212119,19.4527973 2.58300781,19.8955078 C2.82389443,20.3382184 3.15917754,20.6930325 3.58886719,20.9599609 C4.01855684,21.2268894 4.49055732,21.3603516 5.00488281,21.3603516 C5.33040527,21.3603516 5.64290215,21.3253584 5.94238281,21.2553711 C6.24186348,21.1853838 6.45996025,21.1145837 6.59667969,21.0429688 L6.80175781,20.9404297 L6.80175781,19.5390625 L5.65429688,19.5390625 C5.59895806,19.5390625 5.5533856,19.521159 5.51757812,19.4853516 C5.48177065,19.4495441 5.46386719,19.4072268 5.46386719,19.3583984 L5.46386719,18.9921875 C5.46386719,18.9368487 5.48177065,18.8912762 5.51757812,18.8554688 C5.5533856,18.8196613 5.59895806,18.8017578 5.65429688,18.8017578 L7.3828125,18.8017578 C7.43164087,18.8017578 7.47395815,18.8212889 7.50976562,18.8603516 C7.5455731,18.8994143 7.56347656,18.9433591 7.56347656,18.9921875 L7.56347656,21.2822266 C7.56347656,21.3473311 7.53743516,21.3994139 7.48535156,21.4384766 C7.45605454,21.4547527 7.41617864,21.4783527 7.36572266,21.5092773 C7.31526667,21.540202 7.20540449,21.5930986 7.03613281,21.6679688 C6.86686113,21.7428389 6.69189543,21.80957 6.51123047,21.8681641 C6.3305655,21.9267581 6.10351699,21.9796547 5.83007812,22.0268555 C5.55663926,22.0740562 5.28483208,22.0976562 5.01464844,22.0976562 C4.35709307,22.0976562 3.75163037,21.9389664 3.19824219,21.621582 C2.644854,21.3041976 2.20703286,20.8704455 1.88476562,20.3203125 Z M9.18457031,21.8095703 L9.18457031,15.1884766 C9.18457031,15.136393 9.20247378,15.0916343 9.23828125,15.0541992 C9.27408872,15.0167641 9.31966118,14.9980469 9.375,14.9980469 L13.3105469,14.9980469 C13.3658857,14.9980469 13.4114582,15.0167641 13.4472656,15.0541992 C13.4830731,15.0916343 13.5009766,15.136393 13.5009766,15.1884766 L13.5009766,15.4814453 C13.5009766,15.5335289 13.4830731,15.5782876 13.4472656,15.6157227 C13.4114582,15.6531577 13.3658857,15.671875 13.3105469,15.671875 L9.95117188,15.671875 L9.95117188,18.1083984 L12.8222656,18.1083984 C12.871094,18.1083984 12.9150389,18.1279295 12.9541016,18.1669922 C12.9931643,18.2060549 13.0126953,18.2499998 13.0126953,18.2988281 L13.0126953,18.5917969 C13.0126953,18.6471357 12.9939781,18.6927082 12.956543,18.7285156 C12.9191079,18.7643231 12.8743492,18.7822266 12.8222656,18.7822266 L9.95117188,18.7822266 L9.95117188,21.3310547 L13.3105469,21.3310547 C13.3658857,21.3310547 13.4114582,21.3497719 13.4472656,21.387207 C13.4830731,21.4246421 13.5009766,21.4694008 13.5009766,21.5214844 L13.5009766,21.8095703 C13.5009766,21.8616539 13.4830731,21.9064126 13.4472656,21.9438477 C13.4114582,21.9812827 13.3658857,22 13.3105469,22 L9.375,22 C9.31966118,22 9.27408872,21.9812827 9.23828125,21.9438477 C9.20247378,21.9064126 9.18457031,21.8616539 9.18457031,21.8095703 Z M14.2382812,15.4814453 L14.2382812,15.1884766 C14.2382812,15.136393 14.2561847,15.0916343 14.2919922,15.0541992 C14.3277997,15.0167641 14.3733721,14.9980469 14.4287109,14.9980469 L18.671875,14.9980469 C18.7272138,14.9980469 18.7719725,15.0167641 18.8061523,15.0541992 C18.8403322,15.0916343 18.8574219,15.136393 18.8574219,15.1884766 L18.8574219,15.4814453 C18.8574219,15.5335289 18.8403322,15.5782876 18.8061523,15.6157227 C18.7719725,15.6531577 18.7272138,15.671875 18.671875,15.671875 L16.9287109,15.671875 L16.9287109,21.8095703 C16.9287109,21.8583987 16.9091799,21.9023436 16.8701172,21.9414062 C16.8310545,21.9804689 16.7871096,22 16.7382812,22 L16.3574219,22 C16.3085935,22 16.2654624,21.9804689 16.2280273,21.9414062 C16.1905923,21.9023436 16.171875,21.8583987 16.171875,21.8095703 L16.171875,15.671875 L14.4287109,15.671875 C14.3733721,15.671875 14.3277997,15.6531577 14.2919922,15.6157227 C14.2561847,15.5782876 14.2382812,15.5335289 14.2382812,15.4814453 Z" id="BUY-GET"></path>
            </g>
        </g>
    </g>
</svg>