<?xml version="1.0" encoding="UTF-8"?>
<svg width="16px" height="16px" viewBox="0 0 16 16" version="1.1" xmlns="http://www.w3.org/2000/svg" xmlns:xlink="http://www.w3.org/1999/xlink">
    <!-- Generator: Sketch 50.2 (55047) - http://www.bohemiancoding.com/sketch -->
    <title>Fav</title>
    <desc>Created with Sketch.</desc>
    <defs></defs>
    <g id="Symbols" stroke="none" stroke-width="1" fill="none" fill-rule="evenodd">
        <g id="Components-/-Misc-/-Favorit-/-Fav" transform="translate(-5.000000, -5.000000)" fill="#8C8582">
            <g id="fav">
                <path d="M20.65347,11.9473758 C20.9678581,11.6409976 21.078795,11.1904415 20.9430274,10.7711238 C20.8068593,10.3518062 20.4516208,10.0530374 20.0166839,9.99056032 L16.1415004,9.42746524 C15.9772977,9.40383607 15.8351222,9.29890655 15.7614313,9.15032314 L14.0296936,5.63958951 C13.8342524,5.24550305 13.4397654,5 13.0004231,5 C12.5606803,5 12.1665938,5.24550305 11.9707521,5.63958951 L10.2390144,9.15032314 C10.1653235,9.29890655 10.021546,9.40383607 9.85734329,9.42746524 L5.98215978,9.99056032 C5.5472229,10.0530374 5.19198439,10.3518062 5.0562168,10.7711238 C4.9216507,11.1904415 5.03258764,11.6409976 5.34697572,11.9473758 L8.15043629,14.6791479 C8.26938312,14.7964927 8.32425085,14.9638994 8.29581575,15.1281021 L7.63419905,18.9876663 C7.56090858,19.4210012 7.73432264,19.8495302 8.09116313,20.1090505 C8.44600114,20.3673694 8.90937312,20.4018119 9.29865365,20.1967588 L12.7641314,18.3741089 C12.9111128,18.2976145 13.0877309,18.2976145 13.2363143,18.3741089 L16.7001901,20.1967588 C16.8708007,20.2860691 17.0538266,20.3297229 17.2352505,20.3297229 C17.4731442,20.3297229 17.7074334,20.2548305 17.9092826,20.1090505 C18.2645211,19.8495302 18.4399376,19.4210012 18.3662466,18.9876663 L17.703028,15.1281021 C17.6745929,14.9638994 17.7294606,14.7964927 17.8500094,14.6807499 L20.65347,11.9473758 Z M17.0726498,15.237437 L17.7342665,19.0953993 C17.7671071,19.2896391 17.6918141,19.4738665 17.5324174,19.5912113 C17.3730206,19.7069542 17.1739749,19.721372 16.9989589,19.6288578 L13.5338816,17.8078099 C13.3680769,17.7205021 13.183449,17.6764477 13.0004231,17.6764477 C12.8173972,17.6764477 12.6327693,17.7205021 12.4653626,17.8078099 L9.00148683,19.6288578 C8.82647079,19.721372 8.62782558,19.7069542 8.46802833,19.5912113 C8.30863157,19.4738665 8.23333863,19.2896391 8.26617917,19.0953993 L8.92819636,15.237437 C8.99227546,14.8653778 8.8685227,14.4849081 8.5977885,14.2205818 L5.79432792,11.4892103 C5.6537544,11.3514402 5.60529458,11.1559989 5.66616973,10.9697691 C5.72704487,10.7819372 5.88043421,10.652177 6.07467398,10.6241424 L9.949457,10.0610473 C10.3235187,10.0077816 10.6459167,9.77309188 10.8133233,9.43347266 L12.545061,5.92313952 C12.6327693,5.74612101 12.8029794,5.64119148 13.0004231,5.64119148 C13.1974663,5.64119148 13.3664749,5.74612101 13.4537827,5.92313952 L15.1875228,9.43347266 C15.3533275,9.77309188 15.676927,10.0077816 16.0509887,10.0610473 L19.9245702,10.6241424 C20.1200115,10.652177 20.2734008,10.7819372 20.332674,10.9697691 C20.3939496,11.1559989 20.3466913,11.3514402 20.2061178,11.4892103 L17.4026572,14.2205818 C17.131923,14.4849081 17.0081702,14.8637758 17.0726498,15.237437 Z" id="Fav"></path>
            </g>
        </g>
    </g>
</svg>