<?xml version="1.0" encoding="UTF-8"?>
<svg width="16px" height="16px" viewBox="0 0 16 16" version="1.1" xmlns="http://www.w3.org/2000/svg" xmlns:xlink="http://www.w3.org/1999/xlink">
    <!-- Generator: Sketch 50.2 (55047) - http://www.bohemiancoding.com/sketch -->
    <title>Fav</title>
    <desc>Created with Sketch.</desc>
    <defs></defs>
    <g id="Symbols" stroke="none" stroke-width="1" fill="none" fill-rule="evenodd">
        <g id="Components-/-Misc-/-Favorit-/-Faved" transform="translate(-5.000000, -5.000000)" fill="#F083A6">
            <g id="fav">
                <path d="M20.65347,11.9473758 L17.8500094,14.6807499 C17.7294606,14.7964927 17.6745929,14.9638994 17.703028,15.1281021 L18.3662466,18.9876663 C18.4399376,19.4210012 18.2645211,19.8495302 17.9092826,20.1090505 C17.7074334,20.2548305 17.4731442,20.3297229 17.2352505,20.3297229 C17.0538266,20.3297229 16.8708007,20.2860691 16.7001901,20.1967588 L13.2363143,18.3741089 C13.0877309,18.2976145 12.9111128,18.2976145 12.7641314,18.3741089 L9.29865365,20.1967588 C8.90937312,20.4018119 8.44600114,20.3673694 8.09116313,20.1090505 C7.73432264,19.8495302 7.56090858,19.4210012 7.63419905,18.9876663 L8.29581575,15.1281021 C8.32425085,14.9638994 8.26938312,14.7964927 8.15043629,14.6791479 L5.34697572,11.9473758 C5.03258764,11.6409976 4.9216507,11.1904415 5.0562168,10.7711238 C5.19198439,10.3518062 5.5472229,10.0530374 5.98215978,9.99056032 L9.85734329,9.42746524 C10.021546,9.40383607 10.1653235,9.29890655 10.2390144,9.15032314 L11.9707521,5.63958951 C12.1665938,5.24550305 12.5606803,5 13.0004231,5 C13.4397654,5 13.8342524,5.24550305 14.0296936,5.63958951 L15.7614313,9.15032314 C15.8351222,9.29890655 15.9772977,9.40383607 16.1415004,9.42746524 L20.0166839,9.99056032 C20.4516208,10.0530374 20.8068593,10.3518062 20.9430274,10.7711238 C21.078795,11.1904415 20.9678581,11.6409976 20.65347,11.9473758 Z" id="Fav"></path>
            </g>
        </g>
    </g>
</svg>