<?xml version="1.0" encoding="UTF-8"?>
<svg width="14px" height="14px" viewBox="0 0 14 14" version="1.1" xmlns="http://www.w3.org/2000/svg" xmlns:xlink="http://www.w3.org/1999/xlink">
    <!-- Generator: Sketch 52.2 (67145) - http://www.bohemiancoding.com/sketch -->
    <title>Oval</title>
    <desc>Created with Sketch.</desc>
    <defs>
        <path d="M7,14 C3.13400675,14 0,10.8659932 0,7 C0,3.13400675 3.13400675,0 7,0 C10.8659932,0 14,3.13400675 14,7 C14,10.8659932 10.8659932,14 7,14 Z M4.68381025,10.0473357 L7,7.73114598 L9.31618975,10.0473357 C9.51789026,10.2490362 9.84563523,10.2490362 10.0473357,10.0473357 C10.2490362,9.84563523 10.2490362,9.51789026 10.0473357,9.31618975 L7.73114598,7 L10.0473357,4.68381025 C10.2490362,4.48210974 10.2490362,4.15436477 10.0473357,3.95266427 C9.84563523,3.75096376 9.51789026,3.75096376 9.31618975,3.95266427 L7,6.26885402 L4.68381025,3.95266427 C4.48210974,3.75096376 4.15436477,3.75096376 3.95266427,3.95266427 C3.75096376,4.15436477 3.75096376,4.48210974 3.95266427,4.68381025 L6.26885402,7 L3.95266427,9.31618975 C3.75096376,9.51789026 3.75096376,9.84563523 3.95266427,10.0473357 C4.15436477,10.2490362 4.48210974,10.2490362 4.68381025,10.0473357 Z" id="path-1"></path>
    </defs>
    <g id="Page-1" stroke="none" stroke-width="1" fill="none" fill-rule="evenodd">
        <mask id="mask-2" fill="white">
            <use xlink:href="#path-1"></use>
        </mask>
        <use id="Clear" fill="#DDDDDD" xlink:href="#path-1"></use>
        <path d="M4.68381025,10.0473357 C4.48210974,10.2490362 4.15436477,10.2490362 3.95266427,10.0473357 C3.75096376,9.84563523 3.75096376,9.51789026 3.95266427,9.31618975 L6.26885402,7 L3.95266427,4.68381025 C3.75096376,4.48210974 3.75096376,4.15436477 3.95266427,3.95266427 C4.15436477,3.75096376 4.48210974,3.75096376 4.68381025,3.95266427 L7,6.26885402 L9.31618975,3.95266427 C9.51789026,3.75096376 9.84563523,3.75096376 10.0473357,3.95266427 C10.2490362,4.15436477 10.2490362,4.48210974 10.0473357,4.68381025 L7.73114598,7 L10.0473357,9.31618975 C10.2490362,9.51789026 10.2490362,9.84563523 10.0473357,10.0473357 C9.84563523,10.2490362 9.51789026,10.2490362 9.31618975,10.0473357 L7,7.73114598 L4.68381025,10.0473357 Z" id="Clear" fill="#FFFFFF" fill-rule="nonzero" mask="url(#mask-2)"></path>
    </g>
</svg>